<svg width="1008" height="1107" viewBox="0 0 1008 1107" fill="none" xmlns="http://www.w3.org/2000/svg">
<g filter="url(#filter0_d)">
<path d="M691.277 816.777C663.943 864.12 623.123 894.823 568.815 908.887C514.841 922.373 452.9 914.325 382.993 884.741L326.993 981.736L240.39 931.736L294.89 837.339C253.5 810.363 217.13 779.357 185.781 744.322C154.432 709.287 132.255 675.699 119.25 643.557L227.881 565.402C240.487 594.234 258.346 622.635 281.458 650.605C304.569 678.575 330.88 703.003 360.39 723.89L443.89 579.263C408.565 545.782 380.257 514.812 358.967 486.354C337.677 457.897 324.172 426.621 318.453 392.527C313.067 357.855 321.541 321.179 343.874 282.496C371.541 234.576 412.528 203.584 466.836 189.52C522.054 175.213 584.739 183.306 654.89 213.801L710.39 117.672L796.993 167.672L742.493 262.069C810.174 308.842 858.608 360.285 887.796 416.396L782.995 497.917C754.027 448.091 718.526 407.58 676.493 376.384L591.493 523.608C626.574 556.179 654.471 586.527 675.184 614.651C696.807 642.532 710.312 673.807 715.698 708.479C721.417 742.573 713.277 778.672 691.277 816.777ZM487.304 356.068C478.971 370.502 477.623 385.504 483.259 401.075C488.895 416.646 500.272 433.607 517.39 451.958L588.39 328.982C563.451 321.511 542.452 320.55 525.393 326.097C508.667 331.066 495.971 341.057 487.304 356.068ZM448.993 770.425C472.444 777.807 492.366 779.301 508.758 774.909C525.151 770.517 537.513 761.103 545.847 746.67C554.18 732.236 555.529 717.234 549.892 701.663C544.833 686.425 534.2 669.509 517.993 650.914L448.993 770.425Z" stroke="url(#paint0_linear)" stroke-width="31"/>
</g>
<defs>
<filter id="filter0_d" x="0.314453" y="0.498352" width="1007.19" height="1106.41" filterUnits="userSpaceOnUse" color-interpolation-filters="sRGB">
<feFlood flood-opacity="0" result="BackgroundImageFix"/>
<feColorMatrix in="SourceAlpha" type="matrix" values="0 0 0 0 0 0 0 0 0 0 0 0 0 0 0 0 0 0 127 0"/>
<feOffset dy="4"/>
<feGaussianBlur stdDeviation="50"/>
<feColorMatrix type="matrix" values="0 0 0 0 0.845833 0 0 0 0 0.0035243 0 0 0 0 0.0035243 0 0 0 0.05 0"/>
<feBlend mode="normal" in2="BackgroundImageFix" result="effect1_dropShadow"/>
<feBlend mode="normal" in="SourceGraphic" in2="effect1_dropShadow" result="shape"/>
</filter>
<linearGradient id="paint0_linear" x1="140.841" y1="702.14" x2="673.849" y2="869.504" gradientUnits="userSpaceOnUse">
<stop stop-color="#949494" stop-opacity="0.39"/>
<stop offset="1" stop-color="white" stop-opacity="0.02"/>
</linearGradient>
</defs>
</svg>
