<svg width="38" height="42" viewBox="0 0 38 42" fill="none" xmlns="http://www.w3.org/2000/svg">
<path d="M37.1116 25.9356V10.8647L7.42232 5.50414V3.65137C7.42232 1.63802 5.78438 0 3.77103 0H0V2.47411H3.77095C4.42007 2.47411 4.94821 3.00224 4.94821 3.65137V26.496C4.94821 29.1333 7.09375 31.2789 9.73107 31.2789H10.7211V34.0983C10.2157 33.8768 9.658 33.753 9.07172 33.753C6.79802 33.753 4.94821 35.6028 4.94821 37.8765C4.94821 40.1502 6.79802 42 9.07172 42C11.2063 42 12.967 40.3696 13.1745 38.2888H13.1952V31.2789H34.6375V34.0983C34.132 33.8768 33.5744 33.753 32.9881 33.753C30.7144 33.753 28.8646 35.6028 28.8646 37.8765C28.8646 40.1502 30.7144 42 32.9881 42C35.1226 42 36.8834 40.3696 37.0909 38.2888H37.1116V28.8048H9.73107C8.45798 28.8048 7.42232 27.7691 7.42232 26.496V25.5232L37.1116 25.9356ZM9.07172 39.5259C8.16224 39.5259 7.42232 38.786 7.42232 37.8765C7.42232 36.967 8.16224 36.2271 9.07172 36.2271C9.9812 36.2271 10.7211 36.967 10.7211 37.8765C10.7211 38.786 9.9812 39.5259 9.07172 39.5259ZM32.9881 39.5259C32.0786 39.5259 31.3387 38.786 31.3387 37.8765C31.3387 36.967 32.0786 36.2271 32.9881 36.2271C33.8976 36.2271 34.6375 36.967 34.6375 37.8765C34.6375 38.786 33.8976 39.5259 32.9881 39.5259ZM19.7928 23.2207L14.8446 23.152V9.35839L19.7928 10.2518V23.2207ZM22.2669 10.6985L26.8028 11.5175V23.3181L22.2669 23.2551V10.6985ZM12.3705 23.1176L7.42232 23.0489V8.01825L12.3705 8.91164V23.1176ZM34.6375 23.4269L29.2769 23.3524V11.9642L34.6375 12.9321V23.4269Z" fill="#121212"/>
</svg>
