<svg width="191" height="49" viewBox="0 0 191 49" fill="none" xmlns="http://www.w3.org/2000/svg">
<path d="M29.35 1.31H15.56L28.16 36.8H16.19L21.16 19.3H9.54L0.09 48H43.98L29.35 1.31ZM84.4406 1.31H78.6305C69.3905 1.31 63.3705 3.76 58.6805 9.43C55.1805 13.63 53.1505 19.3 53.1505 24.83C53.1505 30.29 55.1805 35.82 58.6805 39.95C63.3005 45.48 69.4605 48 78.1405 48H84.4406V36.8H80.2406C75.2005 36.8 72.3305 35.82 69.7405 33.02C67.6405 30.78 66.4505 27.84 66.4505 24.69C66.4505 21.47 67.7105 18.25 69.9505 16.01C72.3305 13.56 75.2005 12.51 79.6805 12.51H84.4406V1.31ZM96.632 1.31V12.51H112.242C115.252 12.51 116.722 13.56 116.722 15.87C116.722 18.32 115.252 19.3 111.752 19.3H96.632V30.5H107.482C113.292 30.5 115.112 32.11 115.112 37.01V48H127.922V35.68C127.922 32.46 127.222 30.01 125.682 28.26C124.422 26.72 123.092 26.09 120.222 25.46C123.862 24.62 125.612 23.78 127.222 21.89C128.972 19.93 130.022 16.92 130.022 13.84C130.022 10.41 128.692 7.05 126.452 4.95C123.512 2.22 120.082 1.31 112.662 1.31H96.632ZM166.741 0.399999C153.091 0.399999 142.871 10.83 142.871 24.83C142.871 38.83 153.021 48.91 167.231 48.91C180.951 48.91 190.891 38.83 190.891 24.83C190.891 17.13 188.441 11.04 183.541 6.56C179.201 2.64 173.111 0.399999 166.741 0.399999ZM166.811 11.11C173.461 11.11 177.591 16.36 177.591 24.83C177.591 33.09 173.531 38.2 166.951 38.2C160.231 38.2 156.171 33.02 156.171 24.55C156.171 16.15 160.161 11.11 166.811 11.11Z" fill="#121212"/>
</svg>
