<svg width="59" height="29" viewBox="0 0 59 29" fill="none" xmlns="http://www.w3.org/2000/svg">
<path d="M7.71161 17.1384C7.84047 17.1384 7.97143 17.1097 8.09494 17.0492L15.8252 13.2722L17.682 16.1606C17.8816 16.4713 18.2155 16.6499 18.5721 16.6499C18.6471 16.6499 18.7232 16.642 18.7992 16.6257C19.2363 16.5322 19.5617 16.1862 19.6284 15.7445L20.3766 11.0411L23.8936 14.4857C24.2164 14.8018 24.7053 14.8795 25.1099 14.6788C25.5146 14.4783 25.7491 14.0424 25.6932 13.5941L25.1504 9.24729L28.3768 12.33C28.725 12.6626 29.2553 12.7196 29.6662 12.4684C30.0771 12.2173 30.2681 11.7195 30.1309 11.2578L28.8204 6.85077L32.8068 9.76554C33.1956 10.0499 33.7414 9.96523 34.0258 9.57631C34.3101 9.1874 34.2253 8.64171 33.8365 8.35735L29.2327 4.9911L31.0835 1.92049C31.1596 1.79441 31.2757 1.75906 31.338 1.74917C31.4003 1.73929 31.5219 1.73731 31.6328 1.83396L37.6428 7.01331C38.0063 7.32954 38.5572 7.29139 38.8734 6.92794C39.1896 6.5645 39.1515 6.01358 38.788 5.69735L32.7781 0.517999C32.3071 0.10815 31.6831 -0.071421 31.0667 0.025924C30.45 0.123036 29.9116 0.485317 29.5894 1.01996L27.7578 4.05882C27.4906 4.01672 27.2108 4.07661 26.9791 4.2399C26.6058 4.50321 26.4425 4.97424 26.5726 5.41223L26.6509 5.67565C26.2479 6.10213 25.0977 6.78436 25.0977 6.78436L24.9722 6.66446C24.6476 6.35439 24.1603 6.28159 23.7593 6.48337C23.3584 6.68516 23.1265 7.11989 23.1821 7.5651L23.2007 7.71408L20.7162 8.93188L20.6127 8.83047C20.3259 8.54971 19.9118 8.45458 19.531 8.58181C19.1505 8.70928 18.8769 9.03481 18.817 9.43163L18.7468 9.89731L16.4497 11.0232C16.1784 10.6582 15.6673 10.5602 15.2791 10.8098C14.9493 11.0218 14.8103 11.4188 14.9104 11.7777L7.32711 15.4827C6.89459 15.6947 6.71583 16.2173 6.92785 16.6499C7.07927 16.9589 7.38922 17.1385 7.71161 17.1384ZM27.202 7.52893L27.7278 9.29719L26.4283 8.05566C26.6992 7.89784 26.9575 7.72164 27.202 7.52893ZM23.4293 9.5448L23.7202 11.874L22.0383 10.2267L23.4293 9.5448ZM18.173 13.6983L17.4021 12.4992L18.43 11.9954L18.173 13.6983Z" fill="white"/>
<path d="M57.9175 19.5967C57.9205 19.5634 57.884 16.2479 57.884 14.6522C57.884 14.6329 57.8834 14.614 57.882 14.5947C57.7837 13.1974 56.9159 12.2428 56.1503 11.4005C55.8845 11.1082 55.6309 10.8285 55.4137 10.541C56.1243 9.9601 56.2929 8.95164 55.7997 8.17032L54.9967 6.89762C54.5846 6.24482 53.8305 5.94011 53.1093 6.0856L52.1573 1.66135C52.0342 1.08949 51.5287 0.681152 50.9437 0.681152H46.2022C45.1411 0.681152 44.2808 1.54132 44.2809 2.60258V5.84532C44.2809 6.07665 44.2519 6.30844 44.1797 6.52825C43.8713 7.46913 42.9746 8.06507 41.993 7.98993C41.5289 7.95446 41.0925 7.75361 40.7413 7.44797L38.3682 5.3829C37.9982 5.06075 37.4335 5.10645 37.1203 5.48886C36.8177 5.85835 36.8902 6.40927 37.2505 6.72282L39.6281 8.79196C40.3363 9.40813 41.2365 9.74087 42.1619 9.74075C42.3475 9.74075 42.5342 9.72738 42.7204 9.70016C43.8356 9.53769 44.8213 8.89849 45.4249 7.94679C45.8176 7.32725 46.0254 6.6121 46.0254 5.87858V2.60258C46.0254 2.50489 46.1046 2.42569 46.2022 2.42569H50.5372L51.486 6.8347L48.1352 8.53656C47.681 8.76718 47.3429 9.1811 47.2077 9.67225C47.0724 10.1634 47.1507 10.692 47.4225 11.1227L48.7054 13.1558C48.8808 13.4337 49.1189 13.6707 49.4097 13.8237C49.6813 13.9664 49.9718 14.0349 50.2594 14.0349C50.657 14.0349 51.0483 13.904 51.3673 13.6585L54.0324 11.6074C54.2947 11.9528 54.5804 12.2675 54.8592 12.5742C55.509 13.289 56.0713 13.9075 56.1391 14.6871C56.1391 15.7864 56.14 16.9106 56.1525 18.0289C55.3407 17.5694 54.4041 17.3056 53.4066 17.3056H42.5736C39.439 17.3056 36.3827 18.2851 33.832 20.107L33.0916 20.6358C32.2663 21.2254 31.2774 21.5422 30.2633 21.5422H6.79217C5.61461 21.5422 4.44542 21.3455 3.33264 20.9603L1.99947 20.4988C2.20811 20.1089 2.53446 19.7871 2.94024 19.5881L8.17279 17.0232C8.57113 16.828 8.78571 16.3678 8.64196 15.948C8.46809 15.4405 7.89739 15.2153 7.43137 15.4437L2.17241 18.0216C1.63614 18.2845 1.16314 18.742 0.793647 19.2792C0.283196 20.0214 0.0230279 20.908 0.000930418 21.8085C0.000348907 21.833 0 21.8469 0 21.8469C0 25.5109 2.98094 28.4918 6.64493 28.4918H53.3183C56.3881 28.4918 58.9523 26.0553 58.9993 22.9858C59.0188 21.7181 58.6133 20.5445 57.9175 19.5967ZM50.3036 12.2758C50.2976 12.2804 50.2791 12.2947 50.2488 12.2892C50.2183 12.2838 50.2058 12.2642 50.2019 12.2576L48.898 10.1914C48.8939 10.1849 48.8815 10.1654 48.8898 10.1356C48.8979 10.1058 48.9187 10.0954 48.9255 10.0919L53.4305 7.80362C53.4408 7.7985 53.4517 7.79594 53.4624 7.79594C53.4857 7.79594 53.5082 7.80757 53.5214 7.82862L54.3244 9.10132C54.3439 9.13202 54.3367 9.1718 54.3079 9.1939L50.3036 12.2758ZM44.6226 19.0502V25.3C44.6226 25.7817 45.0132 26.1722 45.4949 26.1722C45.9766 26.1722 46.3672 25.7817 46.3672 25.3V19.0502H49.063V26.7474H46.3672V24.4273C46.3672 23.9456 45.9766 23.555 45.4949 23.555C45.0132 23.555 44.6226 23.9456 44.6226 24.4273V26.7474H41.9267V19.0675C42.1418 19.0571 42.3574 19.0502 42.5741 19.0502H44.6226ZM40.1822 26.7473H37.4863V20.0599C38.3536 19.6998 39.2562 19.4349 40.1822 19.2667V26.7473ZM34.106 22.0555L34.8464 21.5267C35.1383 21.3182 35.4371 21.1228 35.7418 20.9398V26.7474H33.0459V22.6733C33.4145 22.5017 33.7694 22.2959 34.106 22.0555ZM31.3014 23.2058V26.7474H28.6055V23.2869H30.2636C30.614 23.2868 30.9606 23.2594 31.3014 23.2058ZM15.2842 23.2868H17.9801V26.7473H15.2842V23.2868ZM13.5397 26.7473H10.8438V23.2868H13.5397V26.7473ZM19.7246 23.2868H22.4205V26.7473H19.7246V23.2868ZM24.1651 23.2868H26.8609V26.7473H24.1651V23.2868ZM1.76198 22.2629L2.76195 22.609C3.38254 22.8238 4.01638 22.9865 4.65884 23.0995V26.3258C3.06398 25.6159 1.91538 24.0792 1.76198 22.2629ZM6.40337 26.7413V23.2787C6.53293 23.2828 9.09926 23.2867 9.09926 23.2867V26.7472C9.09926 26.7472 6.48339 26.7453 6.40337 26.7413ZM50.8076 26.7473V19.05C50.8076 19.05 53.4713 19.0517 53.5035 19.0525V26.7448C53.4714 26.7457 50.8076 26.7473 50.8076 26.7473ZM55.2481 26.2774V19.52C56.4431 20.1739 57.2555 21.4431 57.2555 22.8987C57.2555 24.3544 56.4431 25.6236 55.2481 26.2774Z" fill="white"/>
</svg>
