<svg width="47" height="38" viewBox="0 0 47 38" fill="none" xmlns="http://www.w3.org/2000/svg">
<path d="M45.9858 25.6558C47.406 21.2664 46.2374 16.2842 44.9958 12.8319C44.9876 12.6984 44.9459 12.5689 44.874 12.4555C44.452 11.3341 44.0625 10.4129 43.7298 9.7481C44.3423 9.5074 44.7463 8.92488 44.7523 8.27427V1.60199C44.7523 0.717191 44.0257 1.34171e-06 43.1292 1.34171e-06H23.1899C22.7417 -0.000799652 22.3777 0.357145 22.3769 0.799594C22.3769 0.816114 22.3774 0.832635 22.3783 0.849055C22.6542 5.65502 22.2972 8.91506 21.2665 11.2139C21.246 11.2367 21.2271 11.2609 21.2097 11.286C21.2067 11.326 21.2067 11.3662 21.2097 11.4062C20.8163 12.243 20.2843 13.009 19.6353 13.673L19.5623 13.721C19.5623 13.721 19.5623 13.721 19.5623 13.7771C18.6109 14.6727 17.5136 15.4038 16.3162 15.9398C14.2299 16.8534 12.0889 17.6399 9.90506 18.2947L9.49118 18.4309C1.90334 20.914 0.913269 25.4155 0.9295 27.6743C0.927471 27.7064 0.927471 27.7384 0.9295 27.7705V33.4896C0.930717 33.7679 1.07811 34.0256 1.31904 34.1704C3.17866 35.2872 5.18599 36.1444 7.28381 36.7176C7.71524 36.8373 8.16341 36.5892 8.28473 36.1633C8.30756 36.0831 8.3176 35.9998 8.31445 35.9166V35.7323H9.50741V36.5333C9.50223 36.9301 9.79226 37.2709 10.1891 37.3343C10.8951 37.4465 11.6012 37.5346 12.291 37.5906C12.517 37.6094 12.7407 37.5339 12.9077 37.3824C13.0747 37.2295 13.1689 37.0144 13.1674 36.7897V35.7804H14.3604V36.9178C14.3604 37.3602 14.7237 37.7188 15.1719 37.7188C15.8536 37.7188 16.5353 37.7188 17.2657 37.6227C17.6884 37.5892 18.0136 37.2402 18.0123 36.8217V35.7804H19.2052V36.4853C19.1994 36.9276 19.558 37.2909 20.0062 37.2966C20.0532 37.2972 20.1002 37.2938 20.1466 37.2863C21.6363 37.0611 23.1047 36.7156 24.537 36.253L24.6669 36.1969C30.3476 32.9929 33.9508 35.6282 34.0969 35.7403C34.2385 35.8489 34.4126 35.908 34.5919 35.9086H35.5982C36.0464 35.9086 36.4097 35.5499 36.4097 35.1076V33.7539H37.5702V35.0915C37.5702 35.5339 37.9336 35.8925 38.3818 35.8925H40.9949C41.4431 35.8925 41.8064 35.5339 41.8064 35.0915V33.7539H43.0075V35.0915C43.0075 35.5339 43.3709 35.8925 43.819 35.8925H45.8235C46.2717 35.8925 46.6351 35.5339 46.6351 35.0915V26.4568C46.643 26.0702 46.3698 25.7331 45.9858 25.6558ZM26.7281 1.61801H27.3936H43.0887V8.25024H26.7281V1.61801ZM16.5272 17.5898L16.5353 17.6379C17.2005 18.1709 17.8145 18.7636 18.3694 19.4081C18.2222 19.6497 18.1463 19.9271 18.1502 20.2091C18.1447 21.054 18.8342 21.7434 19.6901 21.7489C20.5462 21.7544 21.2446 21.0739 21.2502 20.229C21.2555 19.433 20.6414 18.7661 19.8382 18.6952C19.3249 18.0044 18.7401 17.3682 18.0934 16.7968C18.8186 16.3894 19.5009 15.9118 20.1304 15.3711C20.9175 16.0999 21.6498 16.8843 22.3215 17.718C22.0392 18.5157 22.4655 19.3882 23.2736 19.6669C24.0817 19.9456 24.9657 19.5248 25.2481 18.7272C25.5304 17.9296 25.1042 17.0571 24.2961 16.7783C24.1284 16.7204 23.9519 16.6915 23.7742 16.6927H23.5794C22.8676 15.8082 22.092 14.9757 21.2584 14.2016C21.6452 13.7315 21.9875 13.2275 22.2809 12.6958C23.5373 13.3413 24.7516 14.0636 25.9166 14.8584C25.9086 15.7122 26.6034 16.4107 27.4684 16.4186C28.3334 16.4265 29.041 15.7407 29.049 14.887C29.057 14.0332 28.3623 13.3347 27.4973 13.3268C27.2503 13.3245 27.0061 13.38 26.785 13.4887C25.5586 12.6693 24.2821 11.9257 22.9626 11.262C23.8472 8.93909 24.2286 5.85527 24.0501 1.65005H25.1132V8.28228C25.1132 9.16708 25.8398 9.88427 26.7363 9.88427H41.9444C42.1554 10.3088 42.5125 11.0457 42.902 12.0069H42.5693C37.6392 12.042 33.6715 16.0152 33.7071 20.8812C33.7273 23.6463 35.0616 26.2417 37.3105 27.8906C30.7452 29.5967 20.8689 31.6232 12.5588 31.0946C14.0926 25.0471 12.2585 21.3225 11.0656 19.6884C12.9233 19.087 14.7465 18.3864 16.5272 17.5898ZM9.43437 20.145C10.3108 21.1623 12.5994 24.5825 10.9195 30.8703C7.99532 30.6434 5.15526 29.7965 2.59314 28.3872C2.56403 28.2042 2.54506 28.0197 2.53634 27.8345V27.7785C2.47141 26.0724 3.12064 22.3798 9.43437 20.145ZM44.6306 34.2906V32.9529C44.6306 32.5105 44.2672 32.1519 43.819 32.1519H41.003C40.5548 32.1519 40.1915 32.5105 40.1915 32.9529V34.2906H39.1933V32.9529C39.1933 32.5105 38.8299 32.1519 38.3818 32.1519H35.582C35.1338 32.1519 34.7704 32.5105 34.7704 32.9529V34.2585C33.6668 33.5777 29.6334 31.5992 23.9121 34.7551C22.8943 35.0867 21.8561 35.3543 20.804 35.5561V35.0034C20.804 34.5611 20.4406 34.2024 19.9924 34.2024H17.1926C16.7445 34.2024 16.3811 34.5611 16.3811 35.0034V36.1008H15.9672V34.9794C15.9672 34.5371 15.6039 34.1784 15.1557 34.1784H12.3397C11.8915 34.1784 11.5281 34.5371 11.5281 34.9794V35.9326L11.1142 35.8765V34.9794C11.1142 34.5371 10.7509 34.1784 10.3027 34.1784H7.48669C7.07392 34.1755 6.72466 34.4788 6.67516 34.8833C5.23479 34.4152 3.84777 33.8004 2.53634 33.049V30.1815C6.07462 32.0317 10.6517 32.7286 15.5209 32.7286C28.4567 32.7286 43.2591 27.8426 45.0039 27.2578L45.012 34.2906H44.6306ZM44.2329 25.8401C43.5431 26.0643 41.847 26.6411 39.5017 27.2578C35.8708 25.5234 34.3519 21.2121 36.1092 17.6284C37.3113 15.1769 39.8104 13.6034 42.5693 13.5608C42.8892 13.5564 43.2091 13.5724 43.5269 13.6089L43.535 13.6329C44.728 17.0291 45.7992 21.8751 44.2329 25.8401Z" fill="white"/>
<path d="M29.8525 2.58722C28.5483 2.58722 27.491 3.63081 27.491 4.91811C27.4954 6.20361 28.5501 7.2446 29.8525 7.24901C31.1568 7.24901 32.2141 6.20541 32.2141 4.91811C32.2141 3.63081 31.1569 2.58722 29.8525 2.58722ZM29.8525 5.64702C29.4446 5.64702 29.114 5.32071 29.114 4.91811C29.114 4.51551 29.4446 4.18921 29.8525 4.18921C30.2604 4.18921 30.591 4.51551 30.591 4.91811C30.591 5.32071 30.2604 5.64702 29.8525 5.64702Z" fill="white"/>
</svg>
