<svg width="54" height="39" viewBox="0 0 54 39" fill="none" xmlns="http://www.w3.org/2000/svg">
<path d="M7.22778 27.1651C11.6093 26.5244 15.7607 24.8547 19.293 22.1342C20.0829 21.5258 21.0188 22.7667 20.2276 23.376C17.0988 25.7856 13.4492 27.4866 9.6063 28.3295C7.94962 28.6928 6.21528 28.6924 4.77378 29.6998C3.4667 30.6134 2.57341 32.0651 2.35772 33.6595H19.2791C20.2718 33.6595 20.2734 35.2203 19.2791 35.2203H2.43136C2.75351 36.1826 3.6541 36.8769 4.71196 36.8769H26.9502L36.0484 34.1789C36.4665 34.0522 36.9075 34.1302 37.2583 34.3927C37.6093 34.6552 37.8123 35.0591 37.8151 35.5001L37.8234 36.6475C37.8239 36.7253 37.8867 36.7886 37.9633 36.7886H47.9925C50.1365 36.7886 51.8808 35.0228 51.8808 32.8523V32.2326H42.888H42.8842H36.9576L27.2522 35.1872C27.1801 35.2092 27.1053 35.2203 27.03 35.2203H19.2791C18.2863 35.2203 18.2847 33.6595 19.2791 33.6595H26.9164L36.6217 30.7049C36.6938 30.683 36.7686 30.6718 36.8439 30.6718H42.0535C42.0119 29.3502 42.2668 28.1627 42.8162 27.1328C43.619 25.6277 44.7673 24.9515 45.9831 24.2357C46.8638 23.717 47.7747 23.1807 48.6592 22.2575C49.7665 21.1015 50.5709 19.5866 51.0538 17.7533C50.9861 17.6187 50.9102 17.4875 50.8238 17.3618C50.262 16.5447 49.965 15.5866 49.965 14.5911V10.405C49.965 9.40067 51.5078 9.39901 51.5078 10.405V14.5911C51.5078 15.2664 51.7092 15.9163 52.0904 16.4706C52.6522 17.2878 52.9492 18.2459 52.9492 19.2413V30.9444C53.2377 31.1755 53.4236 31.532 53.4236 31.9322V32.8522C53.4236 35.8832 50.9872 38.3492 47.9925 38.3492H37.9633C37.0413 38.3492 36.2865 37.5903 36.2806 36.6581L36.274 35.7384L27.278 38.4061C27.2075 38.427 27.1344 38.4377 27.061 38.4377H4.71206C2.56137 38.4377 0.762035 36.6145 0.762035 34.4398C0.762035 30.6497 3.61327 27.6937 7.22778 27.1651ZM51.4066 21.0771C50.948 21.9236 50.4013 22.6816 49.7672 23.3437C48.7348 24.4214 47.6852 25.0394 46.7593 25.5846C44.7714 26.7552 43.5045 28.2066 43.5977 30.6718H51.4066V21.0771Z" fill="white"/>
<path d="M19.1688 22.2621C21.8771 19.6546 26.1961 14.5829 27.5624 11.0586L31.1402 1.8295C31.332 1.33453 31.7295 0.959327 32.2308 0.799921C32.732 0.640516 33.2701 0.718346 33.7071 1.01333L35.1873 2.01211C36.1821 2.68344 36.9664 3.5917 37.4884 4.63627H47.0157C47.6733 4.05171 48.5343 3.69617 49.4764 3.69617H50.4339C51.0263 3.69617 51.5081 4.18375 51.5081 4.78298L51.5081 10.848C51.5081 11.279 51.1628 11.6284 50.7366 11.6284C50.3105 11.6284 49.9652 11.279 49.9652 10.848V5.25693H49.4764C48.2679 5.25693 47.2847 6.25228 47.2847 7.4757V17.6062C47.2847 20.5258 44.8682 22.9739 41.9812 22.9739C39.0939 22.9739 36.6777 20.5259 36.6777 17.6062V7.74894C36.6777 5.96135 35.8004 4.30216 34.331 3.31056L32.8509 2.31178C32.7903 2.27088 32.7317 2.27692 32.6933 2.28899C32.6548 2.30127 32.6033 2.3303 32.5765 2.39939L28.9987 11.6284C27.5495 15.3665 23.1051 20.6269 20.2325 23.3926C19.9239 23.6898 19.4355 23.6776 19.1419 23.3654C18.8482 23.0532 18.8603 22.5592 19.1688 22.2621ZM38.2204 7.74894V17.6062C38.2204 19.6769 39.9336 21.4132 41.9812 21.4132C44.0288 21.4132 45.7418 19.677 45.7418 17.6062V7.4757C45.7418 7.02704 45.8199 6.59668 45.9622 6.19703H38.0458C38.1604 6.70011 38.2204 7.22005 38.2204 7.74894Z" fill="white"/>
</svg>
