<svg width="59" height="28" viewBox="0 0 59 28" fill="none" xmlns="http://www.w3.org/2000/svg">
<path d="M54.6695 4.64333L54.2656 3.8346C54.0291 3.36192 53.4541 3.17039 52.9814 3.40691C52.9112 3.44208 52.8455 3.48575 52.786 3.53695C49.3145 6.49635 44.1901 6.43462 40.7909 3.39243L37.779 0.681032C37.4604 0.396422 36.9918 0.357301 36.6305 0.585324L33.4339 2.6038L32.3476 0.881061L30.7263 1.90322L31.8135 3.62596L30.1951 4.64716L29.1089 2.92442L27.4904 3.94753L28.5767 5.67027L26.9593 6.69243L25.873 4.96969L24.2536 5.99185L25.3399 7.71459L23.7205 8.73387L22.6342 7.01113L21.0168 8.03903L22.0763 9.71583L21.0732 10.3647C20.968 10.4327 20.8818 10.5179 20.7794 10.5935L18.5839 11.9803L4.51486 15.1061C2.321 15.5844 0.759893 17.5312 0.769822 19.7767V26.2762C0.769822 26.8048 1.19835 27.2333 1.7269 27.2333H26.6109C26.6751 27.2334 26.7393 27.227 26.8023 27.2142L40.0099 24.5716V26.2761C40.0099 26.8047 40.4385 27.2332 40.967 27.2332H57.2373C57.7659 27.2332 58.1944 26.8047 58.1944 26.2761V19.5766C58.1883 14.3935 56.9818 9.28216 54.6695 4.64333ZM54.837 10.1801C55.6924 12.9149 56.1727 15.7529 56.2648 18.6168H42.5443C43.8517 16.4854 47.3067 12.2712 54.837 10.1801ZM2.68397 19.7767C2.67763 18.4287 3.61497 17.26 4.93215 16.9735L18.9313 13.863C18.8422 14.64 18.946 15.4269 19.2337 16.1542L19.9793 18.0176C20.1504 18.4524 20.6122 18.6983 21.0685 18.5976L27.7192 17.1725C30.7238 16.5254 33.8525 17.4321 36.0457 19.5853L26.5152 21.4909H2.68397V19.7767ZM40.0099 22.6201L26.5152 25.319H2.68397V23.4049H26.6109C26.6751 23.405 26.7393 23.3986 26.8023 23.3858L40.0099 20.7433V22.6201ZM40.2971 18.7353L38.2556 19.143C35.6306 15.8982 31.3997 14.4116 27.322 15.3013L21.457 16.5571L21.011 15.4431C20.5586 14.3009 20.8829 12.9974 21.8178 12.2005L23.1252 11.3746L24.0823 12.8915L25.7017 11.8675L24.7446 10.3505L26.362 9.33121L27.3191 10.8482L28.9375 9.82506L27.9805 8.30809L29.5989 7.28593L30.556 8.8029L32.1734 7.77979L31.2163 6.26473L32.8319 5.24246L33.789 6.75847L35.416 5.73631L34.4589 4.21934L37.043 2.59231L39.5161 4.81847C43.291 8.19863 48.8824 8.57464 53.076 5.73057C53.498 6.59194 53.8722 7.47914 54.2139 8.37784C44.6298 11.0712 41.1383 16.9676 40.2971 18.7353ZM56.2802 25.3192H41.9241V20.5338H56.2802V25.3192Z" fill="white"/>
</svg>
