<svg width="59" height="25" viewBox="0 0 59 25" fill="none" xmlns="http://www.w3.org/2000/svg">
<path d="M16.7363 24.4131C23.3162 24.4131 32.0696 23.9998 40.1239 23.6194C45.698 23.3558 50.963 23.1071 54.7142 23.038C56.6753 23.0018 58.2717 21.4122 58.2717 19.4954V15.1445C58.2717 14.631 57.8554 14.2147 57.3411 14.2147C56.8271 14.2147 56.4113 14.631 56.4113 15.1445V19.4954C56.4113 20.3902 55.6179 21.1605 54.6796 21.1776C50.9024 21.248 45.6238 21.497 40.0352 21.7611C27.7601 22.3407 13.8471 22.9975 8.77842 22.153L8.01623 22.0263C6.46926 21.7704 5.13256 21.5491 4.00485 21.2962C2.6899 21.0006 2.60716 19.0949 2.63531 16.6331L2.64128 15.8781C2.64128 15.3646 2.22543 14.9483 1.71148 14.9483C1.1971 14.9483 0.780819 15.3646 0.780819 15.8781L0.775703 16.6113C0.746273 19.0813 0.707458 22.4631 3.59753 23.1114C4.7777 23.3758 6.13786 23.601 7.7117 23.8621L8.47303 23.9887C10.3096 24.2946 13.2112 24.4131 16.7363 24.4131Z" fill="white"/>
<path d="M46.7374 18.1463C46.7835 18.1463 46.83 18.1429 46.8756 18.1357C53.3876 17.156 57.2497 16.0858 57.4114 16.0406C57.7411 15.9485 57.9949 15.6819 58.0687 15.3463C58.8893 11.6569 58.4184 9.97388 57.7074 7.42715C57.5914 7.01045 57.4668 6.5673 57.3406 6.08235C57.2203 5.62555 56.7789 5.32742 56.3084 5.39736C51.3374 6.10837 47.2236 10.6691 45.8285 17.0165C45.762 17.3155 45.849 17.6281 46.0575 17.8516C46.2345 18.041 46.4819 18.1463 46.7374 18.1463ZM56.3681 14.3909C55.2123 14.6847 52.2591 15.3881 47.9918 16.079C49.3481 11.546 52.2693 8.27762 55.7676 7.39772C55.8175 7.57942 55.8666 7.756 55.9152 7.92788C56.5567 10.2221 56.926 11.5469 56.3681 14.3909Z" fill="white"/>
<path d="M27.5714 19.6767C27.5753 19.6767 27.5791 19.6767 27.5817 19.6767C35.7413 19.5859 42.6138 18.7904 46.9416 18.1387C47.3234 18.0815 47.6292 17.7945 47.7119 17.4187C48.9399 11.8322 52.4177 7.8392 56.5719 7.24507C56.8342 7.20796 57.0676 7.05996 57.2147 6.83945C57.3614 6.61851 57.4075 6.34554 57.3405 6.08878C57.2531 5.75439 57.1639 5.41446 57.0748 5.03657C56.6841 3.37444 55.7513 2.68519 55.0382 2.39985C52.9777 1.57156 50.3755 3.08014 49.8023 3.43756C44.0042 5.68658 40.4505 5.61492 38.489 5.15642C37.6956 4.97088 37.0124 4.4484 36.5649 3.68366C34.5424 0.2195 32.4853 0.415271 32.2541 0.451951C32.1863 0.462188 32.1202 0.479675 32.0562 0.504839C26.1848 2.77262 16.9068 7.12777 10.7676 10.0097C10.4771 10.1462 10.2771 10.4226 10.2391 10.7412C10.2007 11.0602 10.33 11.3763 10.5808 11.5772C12.9125 13.4513 15.6452 14.483 18.273 14.483H23.4381C25.2043 14.483 26.6408 15.9204 26.6408 17.687V18.7469C26.6408 18.9951 26.7402 19.2336 26.9172 19.408C27.092 19.5807 27.327 19.6767 27.5714 19.6767ZM46.043 16.3908C41.9275 16.9888 35.7661 17.6721 28.5021 17.8026V17.6866C28.5021 14.8942 26.2305 12.6221 23.4381 12.6221H18.2734C16.5153 12.6221 14.6868 12.0596 13.0025 11.0167C19.0002 8.20345 27.2004 4.38741 32.5728 2.29962C32.7907 2.33971 33.7832 2.60969 34.9595 4.62285C35.6676 5.83287 36.7701 6.66543 38.0659 6.96783C40.294 7.48903 44.2725 7.5931 50.5632 5.13808C50.622 5.11505 50.6792 5.08562 50.7317 5.0515C51.319 4.67062 53.2413 3.6811 54.3489 4.12766C54.5131 4.19377 55.0126 4.39509 55.2634 5.46266C55.2758 5.51085 55.2864 5.55777 55.2975 5.60383C50.9863 6.7068 47.456 10.7992 46.043 16.3908Z" fill="white"/>
<path d="M26.0412 19.6848C26.5543 19.6848 27.0665 19.6823 27.5818 19.6767C28.091 19.6716 28.5022 19.2558 28.5022 18.7465V17.6866C28.5022 14.7991 26.1009 12.6222 22.9153 12.6222H18.2731C16.0676 12.6222 13.7499 11.7359 11.7457 10.1266C11.4689 9.90355 11.0897 9.86004 10.7685 10.0093C8.9136 10.8798 7.17683 11.6518 5.64436 12.3326C4.19378 12.9766 2.94068 13.5328 1.9213 14.0245C1.18556 14.3794 0.781225 15.1331 0.891268 15.9451C1.00429 16.7901 1.64492 17.461 2.4843 17.6145C10.0268 18.9896 17.9451 19.6848 26.0412 19.6848ZM26.6417 17.8227C18.4432 17.8623 10.4371 17.1735 2.81869 15.7835C2.81869 15.7835 2.76708 15.7208 2.74405 15.6931C3.7357 15.2154 4.97046 14.6677 6.39887 14.0322C7.79997 13.4099 9.37083 12.7126 11.0445 11.9338C13.2713 13.5814 15.8172 14.4826 18.2735 14.4826H22.9157C24.722 14.4826 26.6417 15.6056 26.6417 17.6866V17.8227Z" fill="white"/>
<path d="M32.3922 7.15893C32.6302 7.15893 32.8678 7.06766 33.0495 6.88639C33.4129 6.52342 33.4129 5.93398 33.0495 5.57059L30.0779 2.59862C29.7146 2.23523 29.1255 2.23523 28.7626 2.59862C28.3992 2.96159 28.3992 3.55061 28.7626 3.914L31.7341 6.88639C31.9158 7.06766 32.1542 7.15893 32.3922 7.15893Z" fill="white"/>
<path d="M27.4387 9.14008C27.6767 9.14008 27.9147 9.04923 28.0964 8.86754C28.4597 8.50415 28.4597 7.9147 28.0964 7.55174L25.1235 4.57978C24.7606 4.21682 24.172 4.21682 23.8082 4.57978C23.4452 4.94317 23.4452 5.53261 23.8082 5.89515L26.781 8.86754C26.9631 9.04923 27.2007 9.14008 27.4387 9.14008Z" fill="white"/>
<path d="M21.4939 11.1212C21.7319 11.1212 21.9699 11.0304 22.1512 10.8487C22.515 10.4857 22.515 9.89671 22.1512 9.53332L19.7337 7.11582C19.3703 6.75286 18.7817 6.75286 18.4183 7.11582C18.0549 7.47921 18.0549 8.06823 18.4183 8.4312L20.8358 10.8487C21.0175 11.0304 21.2555 11.1212 21.4939 11.1212Z" fill="white"/>
</svg>
