<svg width="41" height="42" viewBox="0 0 41 42" fill="none" xmlns="http://www.w3.org/2000/svg">
<path d="M0.683333 41.4376H27.3333C27.4886 41.4377 27.6392 41.3849 27.7604 41.2879L30.0667 39.4429V40.7543C30.0667 40.9355 30.1387 41.1093 30.2668 41.2375C30.395 41.3656 30.5688 41.4376 30.75 41.4376H38.95C39.1312 41.4376 39.305 41.3656 39.4332 41.2375C39.5613 41.1093 39.6333 40.9355 39.6333 40.7543V20.9612L40.9984 1.16793C41.0048 1.07446 40.992 0.980664 40.9606 0.892368C40.9293 0.804072 40.8801 0.723165 40.8162 0.654673C40.7523 0.586182 40.6749 0.53157 40.589 0.494231C40.5031 0.456892 40.4104 0.437623 40.3167 0.437622H15.7167C15.6236 0.437621 15.5316 0.456614 15.4462 0.493437C15.3607 0.53026 15.2837 0.584137 15.2199 0.651768C15.156 0.719399 15.1066 0.799358 15.0747 0.886748C15.0428 0.974138 15.0291 1.06712 15.0344 1.15999L16.4 25.0565C16.3936 26.3214 15.887 27.5324 14.9908 28.425C14.0946 29.3177 12.8816 29.8195 11.6167 29.821H6.15C4.51948 29.8228 2.95627 30.4713 1.80332 31.6243C0.650364 32.7772 0.00183125 34.3404 0 35.971V40.7543C0 40.9355 0.0719938 41.1093 0.200144 41.2375C0.328294 41.3656 0.502102 41.4376 0.683333 41.4376ZM38.2667 40.071H36.9C36.9 39.8897 36.828 39.7159 36.6999 39.5878C36.5717 39.4596 36.3979 39.3876 36.2167 39.3876C36.0354 39.3876 35.8616 39.4596 35.7335 39.5878C35.6053 39.7159 35.5333 39.8897 35.5333 40.071H34.1667C34.1667 39.8897 34.0947 39.7159 33.9665 39.5878C33.8384 39.4596 33.6646 39.3876 33.4833 39.3876C33.3021 39.3876 33.1283 39.4596 33.0001 39.5878C32.872 39.7159 32.8 39.8897 32.8 40.071H31.4333V38.021C31.4334 37.8922 31.397 37.7661 31.3285 37.6571C31.26 37.5481 31.162 37.4606 31.046 37.4049C30.9299 37.3491 30.8005 37.3273 30.6726 37.3419C30.5446 37.3564 30.4234 37.4069 30.3229 37.4874L27.3103 39.8976C27.2676 39.7376 27.1683 39.5985 27.0307 39.5062C26.8932 39.4139 26.7268 39.3747 26.5626 39.3959C26.3983 39.4171 26.2473 39.4973 26.1377 39.6214C26.0281 39.7456 25.9673 39.9053 25.9667 40.071H24.6C24.6 39.8897 24.528 39.7159 24.3999 39.5878C24.2717 39.4596 24.0979 39.3876 23.9167 39.3876C23.7354 39.3876 23.5616 39.4596 23.4335 39.5878C23.3053 39.7159 23.2333 39.8897 23.2333 40.071H21.8667C21.8667 39.8897 21.7947 39.7159 21.6665 39.5878C21.5384 39.4596 21.3646 39.3876 21.1833 39.3876C21.0021 39.3876 20.8283 39.4596 20.7001 39.5878C20.572 39.7159 20.5 39.8897 20.5 40.071H19.1333C19.1333 39.8897 19.0613 39.7159 18.9332 39.5878C18.805 39.4596 18.6312 39.3876 18.45 39.3876C18.2688 39.3876 18.095 39.4596 17.9668 39.5878C17.8387 39.7159 17.7667 39.8897 17.7667 40.071H16.4C16.4 39.8897 16.328 39.7159 16.1999 39.5878C16.0717 39.4596 15.8979 39.3876 15.7167 39.3876C15.5354 39.3876 15.3616 39.4596 15.2335 39.5878C15.1053 39.7159 15.0333 39.8897 15.0333 40.071H13.6667C13.6667 39.8897 13.5947 39.7159 13.4665 39.5878C13.3384 39.4596 13.1646 39.3876 12.9833 39.3876C12.8021 39.3876 12.6283 39.4596 12.5001 39.5878C12.372 39.7159 12.3 39.8897 12.3 40.071H10.9333V38.021H26.65C26.7979 38.021 26.9417 37.973 27.06 37.8843L32.1622 34.0576C32.2806 33.9692 32.4244 33.9213 32.5722 33.921H32.8C32.9812 33.9212 33.1549 33.9932 33.283 34.1213C33.4111 34.2494 33.4831 34.4231 33.4833 34.6043V37.3376C33.4833 37.5189 33.5553 37.6927 33.6835 37.8208C33.8116 37.949 33.9854 38.021 34.1667 38.021H38.2667V40.071ZM38.2667 36.6543H34.85V34.6043C34.8501 34.3322 34.7959 34.0629 34.6905 33.8121C34.5851 33.5613 34.4307 33.334 34.2364 33.1437C34.4902 32.4581 34.8334 31.809 35.2571 31.2132C36.0921 30.0572 37.1026 29.3816 38.2667 29.1939V36.6543ZM39.5846 1.80429L39.3961 4.53762H26.1631L26.0068 1.80429H39.5846ZM24.6379 1.80429L24.7942 4.53762H16.5965L16.4401 1.80429H24.6379ZM17.7667 25.0376C17.7667 25.0246 17.7667 25.012 17.7656 24.9986L16.6744 5.90429H24.8722L25.9667 25.0565C25.9602 26.3214 25.4536 27.5324 24.5574 28.425C23.6612 29.3177 22.4483 29.8195 21.1833 29.821H15.7167C15.6333 29.821 15.5507 29.8239 15.4682 29.8273C16.1855 29.252 16.7644 28.5229 17.1622 27.6939C17.5601 26.8649 17.7666 25.9571 17.7667 25.0376ZM15.7167 31.1876H21.1833C22.8139 31.1858 24.3771 30.5373 25.53 29.3843C26.683 28.2314 27.3315 26.6681 27.3333 25.0376C27.3333 25.0246 27.3333 25.012 27.3322 24.9986L26.2411 5.90429H39.3018L38.2683 20.8906C38.2672 20.9063 38.2667 20.9219 38.2667 20.9376V27.812C36.6446 28.0084 35.2225 28.9096 34.1231 30.4488C33.6602 31.1041 33.2809 31.8145 32.9938 32.5637C32.93 32.5577 32.8657 32.5543 32.8 32.5543H32.5722C32.1288 32.5552 31.6975 32.699 31.3422 32.9643L26.4222 36.6543H10.9333V35.971C10.9348 34.7028 11.4392 33.487 12.3359 32.5902C13.2327 31.6935 14.4485 31.1891 15.7167 31.1876ZM1.36667 35.971C1.36811 34.7028 1.87254 33.487 2.76927 32.5902C3.66601 31.6935 4.88183 31.1891 6.15 31.1876H11.6167C11.7 31.1876 11.7826 31.1846 11.8651 31.1813C11.1479 31.7566 10.5689 32.4857 10.1711 33.3147C9.77328 34.1437 9.56672 35.0514 9.56667 35.971V36.6543H1.36667V35.971ZM1.36667 38.021H9.56667V40.071C9.56667 39.8897 9.49467 39.7159 9.36652 39.5878C9.23837 39.4596 9.06457 39.3876 8.88334 39.3876C8.7021 39.3876 8.5283 39.4596 8.40015 39.5878C8.272 39.7159 8.2 39.8897 8.2 40.071H6.83333C6.83333 39.8897 6.76134 39.7159 6.63319 39.5878C6.50504 39.4596 6.33123 39.3876 6.15 39.3876C5.96877 39.3876 5.79496 39.4596 5.66681 39.5878C5.53866 39.7159 5.46667 39.8897 5.46667 40.071H4.1C4.1 39.8897 4.02801 39.7159 3.89986 39.5878C3.77171 39.4596 3.5979 39.3876 3.41667 39.3876C3.23544 39.3876 3.06163 39.4596 2.93348 39.5878C2.80533 39.7159 2.73333 39.8897 2.73333 40.071H1.36667V38.021Z" fill="white"/>
</svg>
