<svg width="291" height="149" viewBox="0 0 291 149" fill="none" xmlns="http://www.w3.org/2000/svg">
<g filter="url(#filter0_d)">
<path d="M79.35 51.31H65.56L78.16 86.8H66.19L71.16 69.3H59.54L50.09 98H93.98L79.35 51.31ZM134.441 51.31H128.631C119.391 51.31 113.371 53.76 108.681 59.43C105.181 63.63 103.151 69.3 103.151 74.83C103.151 80.29 105.181 85.82 108.681 89.95C113.301 95.48 119.461 98 128.141 98H134.441V86.8H130.241C125.201 86.8 122.331 85.82 119.741 83.02C117.641 80.78 116.451 77.84 116.451 74.69C116.451 71.47 117.711 68.25 119.951 66.01C122.331 63.56 125.201 62.51 129.681 62.51H134.441V51.31ZM146.632 51.31V62.51H162.242C165.252 62.51 166.722 63.56 166.722 65.87C166.722 68.32 165.252 69.3 161.752 69.3H146.632V80.5H157.482C163.292 80.5 165.112 82.11 165.112 87.01V98H177.922V85.68C177.922 82.46 177.222 80.01 175.682 78.26C174.422 76.72 173.092 76.09 170.222 75.46C173.862 74.62 175.612 73.78 177.222 71.89C178.972 69.93 180.022 66.92 180.022 63.84C180.022 60.41 178.692 57.05 176.452 54.95C173.512 52.22 170.082 51.31 162.662 51.31H146.632ZM216.741 50.4C203.091 50.4 192.871 60.83 192.871 74.83C192.871 88.83 203.021 98.91 217.231 98.91C230.951 98.91 240.891 88.83 240.891 74.83C240.891 67.13 238.441 61.04 233.541 56.56C229.201 52.64 223.111 50.4 216.741 50.4ZM216.811 61.11C223.461 61.11 227.591 66.36 227.591 74.83C227.591 83.09 223.531 88.2 216.951 88.2C210.231 88.2 206.171 83.02 206.171 74.55C206.171 66.15 210.161 61.11 216.811 61.11Z" fill="white"/>
</g>
<defs>
<filter id="filter0_d" x="0.0899658" y="0.399902" width="290.801" height="148.51" filterUnits="userSpaceOnUse" color-interpolation-filters="sRGB">
<feFlood flood-opacity="0" result="BackgroundImageFix"/>
<feColorMatrix in="SourceAlpha" type="matrix" values="0 0 0 0 0 0 0 0 0 0 0 0 0 0 0 0 0 0 127 0"/>
<feOffset/>
<feGaussianBlur stdDeviation="25"/>
<feColorMatrix type="matrix" values="0 0 0 0 1 0 0 0 0 1 0 0 0 0 1 0 0 0 0.3 0"/>
<feBlend mode="normal" in2="BackgroundImageFix" result="effect1_dropShadow"/>
<feBlend mode="normal" in="SourceGraphic" in2="effect1_dropShadow" result="shape"/>
</filter>
</defs>
</svg>
