<svg width="80" height="80" viewBox="0 0 80 80" fill="none" xmlns="http://www.w3.org/2000/svg">
<path d="M71.6667 80.0001H8.33333C3.73667 80.0001 0 76.2601 0 71.6667V15.0001C0 10.4067 3.73667 6.66675 8.33333 6.66675H71.6667C76.2633 6.66675 80 10.4067 80 15.0001V71.6667C80 76.2601 76.2633 80.0001 71.6667 80.0001ZM8.33333 10.0001C5.57667 10.0001 3.33333 12.2434 3.33333 15.0001V71.6667C3.33333 74.4234 5.57667 76.6667 8.33333 76.6667H71.6667C74.4233 76.6667 76.6667 74.4234 76.6667 71.6667V15.0001C76.6667 12.2434 74.4233 10.0001 71.6667 10.0001H8.33333Z" fill="white"/>
<path d="M78.3333 30.0001H1.66667C0.746667 30.0001 0 29.2534 0 28.3334C0 27.4134 0.746667 26.6667 1.66667 26.6667H78.3333C79.2533 26.6667 80 27.4134 80 28.3334C80 29.2534 79.2533 30.0001 78.3333 30.0001Z" fill="white"/>
<path d="M18.3332 16.6667C17.4132 16.6667 16.6665 15.92 16.6665 15V1.66667C16.6665 0.746667 17.4132 0 18.3332 0C19.2532 0 19.9998 0.746667 19.9998 1.66667V15C19.9998 15.92 19.2532 16.6667 18.3332 16.6667Z" fill="white"/>
<path d="M61.6667 16.6667C60.7467 16.6667 60 15.92 60 15V1.66667C60 0.746667 60.7467 0 61.6667 0C62.5867 0 63.3333 0.746667 63.3333 1.66667V15C63.3333 15.92 62.5867 16.6667 61.6667 16.6667Z" fill="white"/>
<path d="M25 66.6666C24.5734 66.6666 24.1467 66.5033 23.82 66.18C23.17 65.53 23.17 64.4733 23.82 63.8233L35.4867 52.1566C35.9933 51.65 36.7667 51.5266 37.41 51.8433L43.0033 54.64L53.82 43.8233C54.47 43.1733 55.5267 43.1733 56.1767 43.8233C56.8267 44.4733 56.8267 45.53 56.1767 46.18L44.51 57.8466C44.0067 58.3533 43.23 58.48 42.5867 58.16L36.9933 55.3633L26.1767 66.18C25.8534 66.5033 25.4267 66.6666 25 66.6666Z" fill="white"/>
<path d="M55.0002 56.6666C54.0802 56.6666 53.3335 55.9199 53.3335 54.9999V46.6666H45.0002C44.0802 46.6666 43.3335 45.9199 43.3335 44.9999C43.3335 44.0799 44.0802 43.3333 45.0002 43.3333H55.0002C55.9202 43.3333 56.6668 44.0799 56.6668 44.9999V54.9999C56.6668 55.9199 55.9202 56.6666 55.0002 56.6666Z" fill="white"/>
</svg>
