<svg width="80" height="80" viewBox="0 0 80 80" fill="none" xmlns="http://www.w3.org/2000/svg">
<path d="M76.5585 11.0667L59.5078 5.54267C59.1 5.40167 58.6713 5.33083 58.2398 5.33333H57.9998L54.3998 0.533333C54.1833 0.244667 53.8591 0.0561667 53.5011 0.0106667C53.445 0.0106667 53.3888 0.0146667 53.3331 0.0226667V0H26.6665V0.0226667C26.6108 0.0146667 26.5546 0.0106667 26.4985 0.0106667C26.1405 0.0561667 25.8163 0.244667 25.5998 0.533333L21.9998 5.33333H21.7598C21.3391 5.33 20.921 5.39717 20.5225 5.532L3.36247 11.0933C1.32713 11.889 -0.00903394 13.8547 -0.000200608 16.04V37.3333C-0.000200608 38.0697 0.596799 38.6667 1.33313 38.6667H13.3331V78.6667C13.3331 79.403 13.9301 80 14.6665 80H65.3331C66.0695 80 66.6665 79.403 66.6665 78.6667V38.6667H78.6665C79.4028 38.6667 79.9998 38.0697 79.9998 37.3333V16.04C80.001 13.8272 78.6298 11.8457 76.5585 11.0667ZM55.5291 6.48533L45.3865 15.5013L44.9425 15.0573L41.9958 12.1107L53.0918 3.23333L55.5291 6.48533ZM38.6318 18.6667H41.3678L42.6518 67.4667L39.9998 70.1147L37.3478 67.4667L38.6318 18.6667ZM37.8851 16L39.9998 13.892L42.1145 16H37.8851ZM49.5345 2.66667L39.9998 10.292L30.4678 2.66667H49.5345ZM26.9078 3.23333L37.9998 12.1107L35.0531 15.0573L34.6091 15.5013L24.4705 6.48533L26.9078 3.23333ZM77.3331 36H66.6665V28H63.9998V77.3333H15.9998V28H13.3331V36H2.66647V16.04C2.6553 14.9773 3.28747 14.0133 4.26647 13.6L21.3745 8.05733C21.499 8.0175 21.6291 7.99817 21.7598 8H22.1598L33.7811 18.3307C34.309 18.799 35.1103 18.775 35.6091 18.276L35.9838 17.9013L34.6665 67.9653C34.6571 68.3308 34.7985 68.6842 35.0571 68.9427L39.0571 72.9427C39.5778 73.4632 40.4218 73.4632 40.9425 72.9427L44.9425 68.9427C45.2011 68.6842 45.3425 68.3308 45.3331 67.9653L44.0158 17.9013L44.3905 18.276C44.8893 18.775 45.6906 18.799 46.2185 18.3307L57.8398 8H58.2398C58.381 7.99867 58.5211 8.02167 58.6545 8.068L75.6571 13.5733C76.6716 13.9705 77.3376 14.9505 77.3331 16.04V36Z" fill="white"/>
</svg>
