<svg width="81" height="80" viewBox="0 0 81 80" fill="none" xmlns="http://www.w3.org/2000/svg">
<path d="M74.1828 60.1235C70.8935 59.2566 66.4502 57.9907 60.7566 55.7988C60.6843 55.351 60.4189 54.9382 59.9957 54.6938L54.5832 51.5688C53.8379 51.1385 52.881 51.3921 52.4486 52.1408L52.3915 52.2398C51.4455 51.7971 50.5029 51.3421 49.5697 50.8776L49.7425 50.5782C50.174 49.8308 49.9179 48.8754 49.1705 48.4438L43.758 45.3188C43.011 44.8877 42.0549 45.1435 41.6235 45.891L41.3324 46.3951C39.3772 45.2366 37.4397 44.0191 35.5563 42.7627C34.8665 42.3026 33.9371 42.4615 33.4393 43.1251L25.9391 53.1254C25.059 54.2993 23.6571 55.0001 22.1893 55.0001H17.1893C14.6046 55.0001 12.5018 52.8973 12.5018 50.3126C12.5018 49.4496 11.8022 48.7501 10.9393 48.7501H4.68928C3.91163 48.7501 3.25241 49.3218 3.14256 50.0915C-0.180561 73.3924 0.00178318 71.9777 0.00178318 72.1876C0.00178318 76.4954 3.54569 80.0001 7.90178 80.0001H54.3174C62.3741 80.0001 70.3933 78.0404 77.5075 74.3329C79.046 73.5321 80.0018 71.9341 80.0018 70.1626V67.6751C80.0018 64.2044 77.6897 61.0469 74.1828 60.1235ZM54.3738 55.0565L57.0804 56.6191L53.1733 63.3851C52.7447 64.1282 51.7918 64.3905 51.0386 63.956C50.2908 63.5246 50.0358 62.5702 50.4674 61.8221L54.3738 55.0565ZM46.2551 50.369C45.4346 51.7901 41.5586 58.5029 40.786 59.8413C40.3552 60.5882 39.4004 60.8447 38.6513 60.4122C37.9057 59.9821 37.6494 59.0246 38.0801 58.2783C38.9271 56.8115 42.3779 50.8351 43.5491 48.8066L46.2551 50.369ZM6.04444 51.8751H9.53381C10.2597 55.4366 13.4166 58.1251 17.1894 58.1251H22.1894C24.6358 58.1251 26.9724 56.9568 28.4394 55.0001L35.0574 46.1762C36.6044 47.1829 38.1818 48.1608 39.7701 49.1015L35.3735 56.7163C34.0816 58.9558 34.8518 61.8282 37.0894 63.119C39.3305 64.413 42.1965 63.6504 43.4927 61.4035L48.0047 53.589C48.9366 54.0548 49.8782 54.5113 50.8235 54.956L47.761 60.2602C46.4666 62.5041 47.2324 65.3683 49.4776 66.6632C51.7065 67.9488 54.5832 67.1958 55.88 64.9472L59.5068 58.6668C65.4022 60.9433 69.9935 62.2512 73.3869 63.1455C74.3025 63.3866 75.1063 63.8901 75.713 64.5824C69.2702 68.5402 61.9061 70.6251 54.3191 70.6251H7.90194C6.16459 70.6251 4.55491 69.6636 3.71913 68.1533L6.04444 51.8751ZM76.8768 70.1626C76.8768 70.7554 76.558 71.3041 76.0639 71.5613C69.3933 75.0377 61.8733 76.875 54.3174 76.875H7.90194C5.25944 76.875 3.18209 74.8699 3.12803 72.291L3.14803 72.1508C4.49678 73.1661 6.16053 73.7502 7.90194 73.7502H54.3191C62.3007 73.7502 70.0518 71.6057 76.8732 67.5318C76.8746 67.5796 76.8769 67.6272 76.8769 67.6752V70.1626H76.8768Z" fill="white"/>
<path d="M76.8626 7.59161C76.7526 6.82192 76.0934 6.2502 75.3159 6.2502H69.0659C68.2029 6.2502 67.5034 6.94974 67.5034 7.8127C67.5034 10.3974 65.4006 12.5002 62.8159 12.5002H57.8159C56.3479 12.5002 54.9462 11.7994 54.0659 10.6252L46.5659 0.625206C46.0682 -0.0383874 45.1387 -0.197606 44.4489 0.262863C42.5654 1.51927 40.6279 2.73677 38.6728 3.89521L38.3817 3.39114C37.9498 2.64271 36.9928 2.38802 36.2472 2.81896L30.8347 5.94395C30.0873 6.37536 29.8314 7.33099 30.2626 8.07833L30.4356 8.37786C29.5058 8.84099 28.5631 9.29583 27.6139 9.73989L27.5567 9.64098C27.1247 8.8927 26.1679 8.63833 25.4222 9.06895L20.0097 12.194C19.5862 12.4383 19.3211 12.8511 19.2487 13.299C13.555 15.4908 9.1117 16.7568 5.82279 17.6236C2.34404 18.5396 0.00341797 21.6744 0.00341797 25.1752V27.6627C0.00341797 29.4343 0.959199 31.0322 2.49685 31.8327C9.6117 35.5405 17.6304 37.5002 25.6862 37.5002H56.2534C57.1164 37.5002 57.8159 36.8007 57.8159 35.9377C57.8159 35.0747 57.1164 34.3752 56.2534 34.3752H25.6862C18.1312 34.3752 10.6119 32.5377 3.94045 29.0611C3.44717 28.8044 3.12842 28.2555 3.12842 27.6627C3.12842 27.6627 3.13076 25.0796 3.13217 25.0318C9.95357 29.1057 17.7047 31.2502 25.6862 31.2502H72.1034C73.8448 31.2502 75.5086 30.6661 76.8573 29.6508L76.8773 29.7911C76.8229 32.3699 74.7456 34.3752 72.1034 34.3752H56.4096C55.5467 34.3752 54.8471 35.0747 54.8471 35.9377C54.8471 36.8007 55.5467 37.5002 56.4096 37.5002H72.1032C76.4593 37.5002 80.0032 33.9955 80.0032 29.6877C80.0032 29.4777 80.1876 30.906 76.8626 7.59161ZM36.4561 6.30661C37.6304 8.34052 41.0768 14.3091 41.9248 15.7777C42.3556 16.5246 42.0995 17.4821 41.3532 17.9125C40.6062 18.3441 39.6508 18.0893 39.2189 17.3407C38.7725 16.5677 34.5073 9.18067 33.75 7.86895L36.4561 6.30661ZM25.6314 12.5565L29.5375 19.3215C29.9681 20.068 29.7117 21.0257 28.9664 21.456C28.2195 21.8868 27.262 21.6307 26.8314 20.8844L22.9248 14.1191L25.6314 12.5565ZM72.1032 28.125H25.6861C18.0989 28.125 10.7347 26.04 4.2917 22.0821C4.8981 21.3905 5.70217 20.8866 6.61857 20.6454C10.0117 19.751 14.6029 18.4432 20.4984 16.1666L24.1247 22.4465C25.4201 24.6924 28.2842 25.4568 30.5281 24.1625C32.7654 22.8707 33.5353 19.9985 32.2437 17.7594L29.182 12.456C30.1304 12.0099 31.0722 11.5535 32.0009 11.0893L36.5123 18.9027C37.8058 21.145 40.6697 21.916 42.9153 20.6191C45.1536 19.328 45.9236 16.4557 44.6314 14.2157L40.2351 6.60145C41.8234 5.66099 43.4006 4.68302 44.9478 3.67614L51.5656 12.4999C53.0328 14.4568 55.3693 15.625 57.8157 15.625H62.8157C66.5886 15.625 69.7453 12.9366 70.4714 9.37505H73.9606L76.2861 25.6533C75.4503 27.1636 73.8406 28.125 72.1032 28.125Z" fill="white"/>
</svg>
